<?xml version="1.0" encoding="UTF-8"?>
<svg xmlns="http://www.w3.org/2000/svg" width="129" height="37" viewBox="0 0 129 37" fill="none">
  <path d="M18.5368 0.0931189H0V36.9069H18.5368C25.1926 36.9569 31.3644 33.4595 34.7069 27.7439C38.0494 22.0282 38.0494 14.9718 34.7069 9.25614C31.3644 3.5405 25.1926 0.0431419 18.5368 0.0931189ZM21.7164 25.9519C13.8289 33.7885 5.05867 37.7836 2.12924 34.8767C-0.800188 31.9698 3.22513 23.2587 11.1168 15.421C19.0084 7.58343 27.7808 3.58937 30.7082 6.4973C33.6355 9.40522 29.6133 18.1153 21.727 25.9519H21.7164Z" fill="#2E2E2E"></path>
  <path d="M68.5492 8.8118V22.8868C68.5934 27.8814 65.8967 32.5151 61.4852 35.0249C57.0737 37.5348 51.6258 37.5348 47.2144 35.0249C42.8029 32.5151 40.1062 27.8814 40.1503 22.8868V8.8118H50.4879C49.2617 11.6461 48.4882 15.8067 48.4882 20.4435C48.4882 28.984 51.1127 35.9071 54.3493 35.9071C57.5858 35.9071 60.2114 28.9851 60.2114 20.4435C60.2114 15.8067 59.4378 11.6461 58.2116 8.8118H68.5492Z" fill="#2E2E2E"></path>
  <path d="M92.2682 8.8118C95.8169 15.8183 96.6287 22.3488 94.0008 23.8032C91.1823 25.3618 85.4756 20.4963 81.2538 12.9401C80.5063 11.6026 79.8349 10.2243 79.2429 8.8118H69.5345L87.1616 36.9073L104.79 8.8118H92.2682Z" fill="#2E2E2E"></path>
  <path d="M128.233 31.4505C127.705 31.5613 127.166 31.6155 126.626 31.6121C122.908 31.6121 118.913 29.6146 115.751 26.5883C122.408 24.1577 125.964 20.2125 125.964 15.7295C125.964 11.7842 122.356 8.8118 117.143 8.8118C108.265 8.8118 102.829 15.3493 102.829 23.2388C102.829 31.6121 109.265 36.9073 117.085 36.9073C122.245 36.9073 125.962 34.9637 128.292 31.5054L128.233 31.4505ZM109.704 13.8905C109.704 11.893 110.536 10.7047 111.977 10.7047C114.364 10.7047 117.583 14.7028 117.583 19.4023C117.583 22.1582 116.971 24.3194 115.419 26.265C112.09 22.9176 109.704 18.3755 109.704 13.8905Z" fill="#2E2E2E"></path>
</svg>
