<?xml version="1.0" encoding="UTF-8"?> <!-- Generator: Adobe Illustrator 23.0.1, SVG Export Plug-In . SVG Version: 6.00 Build 0) --> <svg xmlns="http://www.w3.org/2000/svg" xmlns:xlink="http://www.w3.org/1999/xlink" version="1.1" id="Layer_1" x="0px" y="0px" viewBox="0 0 437.2 86.4" style="enable-background:new 0 0 437.2 86.4;" xml:space="preserve"> <style type="text/css"> .st0{fill:#275768;} .st1{fill:#6DC7BA;} .st2{fill:#E1E2E5;} .st3{fill:#AAE8DE;} .st4{fill:#215263;} </style> <title>First Screen FlexWeb</title> <g id="notif"> <polygon class="st0" points="56.6,81.2 56.6,58.4 79.4,58.4 "></polygon> <rect x="30" y="5.3" class="st0" width="22.8" height="22.8"></rect> <path class="st1" d="M56.6,28.1h22.8V16.9c0-6.4-5.2-11.7-11.6-11.7c0,0,0,0,0,0H56.6V28.1z"></path> <rect x="3.5" y="31.8" class="st1" width="22.8" height="22.8"></rect> <rect x="30" y="31.8" class="st2" width="22.8" height="22.8"></rect> <rect x="56.6" y="31.8" class="st3" width="22.8" height="22.8"></rect> <path class="st0" d="M26.3,81.2H15.2c-6.5,0-11.7-5.2-11.7-11.7V58.4h22.8V81.2z"></path> <rect x="30" y="58.4" class="st1" width="22.8" height="22.8"></rect> <path class="st2" d="M3.5,28.1h22.8V5.3H15.2c-6.4,0-11.7,5.2-11.7,11.7V28.1z"></path> <path class="st4" d="M128.8,21.3c1.7,0,3.1,1.4,3.1,3.1c0,0,0,0,0,0c0,1.7-1.3,3-3,3c0,0,0,0-0.1,0h-16.3v12.8h12.3 c1.7,0,3.1,1.4,3.1,3.1c0,1.7-1.4,3-3.1,3h-12.3v15.1c0,1.9-1.6,3.4-3.4,3.4c-1.8-0.1-3.2-1.6-3.2-3.4V25c-0.1-1.9,1.3-3.5,3.1-3.6 c0.1,0,0.3,0,0.4,0H128.8z"></path> <path class="st4" d="M143.4,61.6c0,1.8-1.5,3.3-3.3,3.3c-1.8,0-3.2-1.5-3.1-3.3V22.3c0-1.8,1.4-3.2,3.1-3.3c1.8,0,3.3,1.4,3.3,3.3 V61.6z"></path> <path class="st4" d="M176.3,52.2h-20.4c0.6,4.5,4.3,7.3,9,7.3c3.1,0,4.8-1.1,7-2.8c1.1-1.1,2.9-1.2,4.1-0.2c1.2,1,1.3,2.8,0.2,4 c0,0-0.1,0.1-0.1,0.1c-3.1,3-7.2,4.7-11.5,4.6c-8.4,0-15.2-6.1-15.2-15.4s6.7-15.2,15.1-15.2c8.1,0,14.4,5.6,14.7,14.6 C179.2,50.9,177.9,52.2,176.3,52.2z M172.9,47.5c-0.4-4.2-4.1-7.4-8.3-7.2c-4.5,0-8,2.7-8.7,7.2H172.9z"></path> <path class="st4" d="M187.4,63.6c-1,1.4-2.9,1.7-4.3,0.9c-1.4-0.9-1.7-2.7-0.8-4.1c0,0,0.1-0.1,0.1-0.1l8.5-11.7l-6.4-8.8 c-1-1.3-0.7-3.2,0.7-4.2c0,0,0.1-0.1,0.1-0.1c1.5-0.9,3.4-0.6,4.4,0.9l4.9,7l4.9-7c1-1.4,2.9-1.8,4.4-0.9c1.4,0.9,1.8,2.8,0.8,4.2 c0,0,0,0,0,0l-6.4,8.8l8.5,11.7c1,1.3,0.7,3.1-0.6,4.1c0,0-0.1,0.1-0.1,0.1c-1.5,0.8-3.3,0.5-4.3-0.9l-7.1-9.7L187.4,63.6z"></path> <path class="st4" d="M234.2,59.7c1.2,1.2,1.3,3.1,0.1,4.3c-1.2,1.2-3.1,1.3-4.3,0.1c-0.1-0.1-0.1-0.1-0.2-0.2l-11.9-13v10.7 c0,1.8-1.5,3.3-3.3,3.3c0,0,0,0,0,0c-1.8,0-3.2-1.5-3.1-3.3V22.3c0-1.8,1.4-3.2,3.1-3.3c1.8,0,3.3,1.4,3.3,3.3c0,0,0,0,0,0v22.6 l8.7-9c1.2-1.2,3.2-1.2,4.4,0c1.2,1.3,1.1,3.3-0.1,4.5l-7.5,7.7L234.2,59.7z"></path> <path class="st4" d="M263.3,52.2h-20.4c0.6,4.5,4.3,7.3,9,7.3c3.1,0,4.8-1.1,7-2.8c1.1-1.1,2.9-1.2,4.1-0.2c1.2,1,1.3,2.8,0.2,4 c0,0-0.1,0.1-0.1,0.1c-3.1,3-7.2,4.7-11.5,4.6c-8.4,0-15.2-6.1-15.2-15.4s6.7-15.2,15.1-15.2c8.1,0,14.4,5.6,14.7,14.6 C266.2,50.9,264.9,52.2,263.3,52.2z M259.9,47.5c-0.4-4.2-4.1-7.4-8.3-7.2c-4.5,0-8,2.7-8.7,7.2H259.9z"></path> <path class="st4" d="M297,52.2h-20.4c0.6,4.5,4.3,7.3,9,7.3c3.1,0,4.8-1.1,7-2.8c1.1-1.1,2.9-1.2,4.1-0.2c1.2,1,1.3,2.8,0.2,4 c0,0-0.1,0.1-0.1,0.1c-3.1,3-7.2,4.7-11.5,4.6c-8.3,0-15-6.1-15-15.4s6.7-15.2,15-15.2c8.2,0,14.4,5.6,14.7,14.6 C300,50.9,298.7,52.2,297,52.2C297,52.2,297,52.2,297,52.2z M293.6,47.5c-0.4-4.2-4.1-7.4-8.4-7.2c-4.5,0-8,2.7-8.6,7.2H293.6z"></path> <path class="st4" d="M310.9,39.6c1.8-3.1,5.8-4.9,9.8-4.9c7.9,0,14.6,6.1,14.6,15.3s-6.6,15.2-14.6,15.2c-4,0-8-1.6-9.8-4.8v15.5 c0,1.8-1.5,3.3-3.3,3.3c0,0,0,0,0,0c-1.8,0-3.2-1.5-3.1-3.3V38.2c0-1.8,1.4-3.2,3.1-3.3c1.8,0,3.3,1.4,3.3,3.3c0,0,0,0,0,0V39.6z M319.9,59c4.7,0.1,8.6-3.6,8.8-8.3c0-0.2,0-0.4,0-0.6c0-5.5-3.9-9.2-8.8-9.2c-5,0-9,4-9,9C310.8,55,314.9,59,319.9,59L319.9,59 L319.9,59z"></path> <path class="st4" d="M344.4,19.3c2.3,0,4.1,1.8,4.1,4.1c0,2.3-1.8,4.1-4.1,4.1l0,0c-2.3,0.2-4.2-1.5-4.4-3.8s1.5-4.2,3.8-4.4 C344,19.3,344.2,19.3,344.4,19.3z M347.7,38.2c0-1.8-1.5-3.3-3.3-3.3c0,0,0,0,0,0c-1.8,0-3.2,1.5-3.1,3.3v23.4 c0,1.8,1.4,3.2,3.1,3.3c1.8,0,3.3-1.4,3.3-3.3c0,0,0,0,0,0V38.2z"></path> <path class="st4" d="M355.3,38.2c0-1.8,1.5-3.3,3.3-3.3c1.8,0,3.2,1.5,3.1,3.3v1.4c1.7-3.4,5.7-5,9-5c7.1,0,11.2,4.6,11.2,12.9 v14.1c0,1.8-1.5,3.3-3.3,3.3c0,0,0,0,0,0c-1.8,0-3.2-1.5-3.1-3.3V48.2c0-4.6-2.4-7.3-6.1-7.3s-7.5,2.1-7.5,7.8v12.8 c0,1.8-1.5,3.3-3.3,3.3c-1.8,0-3.2-1.5-3.1-3.3L355.3,38.2z"></path> <path class="st4" d="M401.6,73.4c6,0,9.8-3.3,9.8-11.5v-2.1c-1.6,3.6-6,5.5-9.9,5.5c-7.9,0-14.8-5.9-14.8-15.2s6.9-15.4,14.8-15.4 c4,0,8.1,1.8,9.9,4.9v-1.4c0-1.8,1.4-3.2,3.1-3.3c1.8,0,3.3,1.4,3.3,3.3l-0.1,22.3c-0.1,13.5-6.3,18.9-16.2,18.9 c-4.6,0-9-2-11.9-5.6c-1-1.3-0.8-3.2,0.5-4.2c1.4-0.9,3.2-0.6,4.3,0.6C396.3,72.2,398.9,73.3,401.6,73.4z M402.2,40.9 c-4.8-0.1-8.8,3.8-8.9,8.6c0,0.1,0,0.2,0,0.4c-0.2,4.8,3.5,8.8,8.3,9c0.2,0,0.4,0,0.6,0c4.9,0,9-3.9,9-8.9c0,0,0-0.1,0-0.1 C411.3,44.1,407.1,40.9,402.2,40.9z"></path> <path class="st4" d="M429.2,56.7c2.4-0.1,4.4,1.8,4.4,4.2c0,0,0,0.1,0,0.1c0.1,2.4-1.8,4.5-4.3,4.6s-4.5-1.8-4.6-4.3 c-0.1-2.4,1.8-4.5,4.3-4.6C429.2,56.7,429.2,56.7,429.2,56.7z"></path> </g> </svg> 