<svg xmlns="http://www.w3.org/2000/svg" xmlns:xlink="http://www.w3.org/1999/xlink" width="226" height="50.051" viewBox="0 0 226 50.051">
  <defs>
    <linearGradient id="linear-gradient" x1="-4.777" y1="67.057" x2="-4.777" y2="67.09" gradientUnits="objectBoundingBox">
      <stop offset="0" stop-color="#e64e18" stop-opacity="0"/>
      <stop offset="1" stop-color="#e2361b"/>
    </linearGradient>
  </defs>
  <g id="proRMS_Logo" transform="translate(-93.464 -99.801)">
    <g id="revenue_management_system_for_hotels" data-name="revenue management system for hotels" transform="translate(146.322 140.265)" style="isolation: isolate">
      <g id="Group_382" data-name="Group 382" transform="translate(0)" style="isolation: isolate">
        <path id="Path_794" data-name="Path 794" d="M191.374,177.452a2.178,2.178,0,0,0-.39-.034,1.405,1.405,0,0,0-.911.3,1.646,1.646,0,0,0-.531.873v3.573h-.572v-5.2h.563l.009.827a1.53,1.53,0,0,1,1.467-.923.949.949,0,0,1,.38.063Z" transform="translate(-188.97 -174.678)" fill="#040506"/>
        <path id="Path_795" data-name="Path 795" d="M196.549,182.259a2.259,2.259,0,0,1-1.2-.327,2.23,2.23,0,0,1-.834-.911,2.843,2.843,0,0,1-.3-1.311V179.5a3.066,3.066,0,0,1,.291-1.352,2.314,2.314,0,0,1,.81-.945,2,2,0,0,1,1.125-.344,1.877,1.877,0,0,1,1.5.647,2.622,2.622,0,0,1,.556,1.767v.322h-3.712v.111a2.179,2.179,0,0,0,.508,1.474,1.614,1.614,0,0,0,1.276.589,1.874,1.874,0,0,0,.815-.168,1.808,1.808,0,0,0,.641-.539l.361.274A2.1,2.1,0,0,1,196.549,182.259Zm-.106-4.9a1.44,1.44,0,0,0-1.094.476,2.2,2.2,0,0,0-.541,1.279h3.12v-.063a1.91,1.91,0,0,0-.428-1.221A1.326,1.326,0,0,0,196.444,177.355Z" transform="translate(-191.313 -174.678)" fill="#040506"/>
        <path id="Path_796" data-name="Path 796" d="M205.032,181.448l1.582-4.409h.591l-1.942,5.2H204.8l-1.952-5.2h.591Z" transform="translate(-195.165 -174.755)" fill="#040506"/>
        <path id="Path_797" data-name="Path 797" d="M214.072,182.259a2.256,2.256,0,0,1-1.2-.327,2.231,2.231,0,0,1-.835-.911,2.842,2.842,0,0,1-.3-1.311V179.5a3.065,3.065,0,0,1,.291-1.352,2.322,2.322,0,0,1,.81-.945,2,2,0,0,1,1.125-.344,1.879,1.879,0,0,1,1.5.647,2.622,2.622,0,0,1,.555,1.767v.322h-3.712v.111a2.179,2.179,0,0,0,.508,1.474,1.614,1.614,0,0,0,1.276.589,1.874,1.874,0,0,0,.815-.168,1.81,1.81,0,0,0,.642-.539l.36.274A2.1,2.1,0,0,1,214.072,182.259Zm-.106-4.9a1.438,1.438,0,0,0-1.094.476,2.2,2.2,0,0,0-.541,1.279h3.12v-.063a1.907,1.907,0,0,0-.428-1.221A1.326,1.326,0,0,0,213.966,177.355Z" transform="translate(-199.138 -174.678)" fill="#040506"/>
        <path id="Path_798" data-name="Path 798" d="M222.052,176.961l.019.889a2.06,2.06,0,0,1,.731-.733,1.894,1.894,0,0,1,.966-.253,1.559,1.559,0,0,1,1.245.472,2.126,2.126,0,0,1,.413,1.413v3.414h-.572v-3.419a1.59,1.59,0,0,0-.3-1.038,1.158,1.158,0,0,0-.93-.341,1.456,1.456,0,0,0-.945.334,1.959,1.959,0,0,0-.608.9v3.563H221.5v-5.2Z" transform="translate(-203.498 -174.678)" fill="#040506"/>
        <path id="Path_799" data-name="Path 799" d="M234.609,181.582a1.87,1.87,0,0,1-1.659.755,1.608,1.608,0,0,1-1.265-.483,2.114,2.114,0,0,1-.442-1.43v-3.385h.572v3.313q0,1.485,1.2,1.485A1.473,1.473,0,0,0,234.6,180.8v-3.765h.577v5.2h-.558Z" transform="translate(-207.847 -174.755)" fill="#040506"/>
        <path id="Path_800" data-name="Path 800" d="M242.809,182.259a2.258,2.258,0,0,1-1.2-.327,2.23,2.23,0,0,1-.834-.911,2.843,2.843,0,0,1-.3-1.311V179.5a3.058,3.058,0,0,1,.291-1.352,2.314,2.314,0,0,1,.81-.945,2,2,0,0,1,1.125-.344,1.879,1.879,0,0,1,1.5.647,2.623,2.623,0,0,1,.556,1.767v.322h-3.712v.111a2.179,2.179,0,0,0,.507,1.474,1.615,1.615,0,0,0,1.277.589,1.87,1.87,0,0,0,.815-.168,1.8,1.8,0,0,0,.642-.539l.361.274A2.1,2.1,0,0,1,242.809,182.259Zm-.106-4.9a1.44,1.44,0,0,0-1.094.476,2.2,2.2,0,0,0-.541,1.279h3.12v-.063a1.91,1.91,0,0,0-.428-1.221A1.327,1.327,0,0,0,242.7,177.355Z" transform="translate(-211.97 -174.678)" fill="#040506"/>
        <path id="Path_801" data-name="Path 801" d="M255.069,176.961l.019.846a1.919,1.919,0,0,1,.721-.707,1.976,1.976,0,0,1,.961-.236,1.459,1.459,0,0,1,1.563,1.01,1.942,1.942,0,0,1,.745-.748,2.063,2.063,0,0,1,1.029-.262q1.674,0,1.707,1.827v3.472h-.577v-3.428a1.552,1.552,0,0,0-.3-1.034,1.224,1.224,0,0,0-.964-.336,1.53,1.53,0,0,0-1.048.4,1.42,1.42,0,0,0-.476.955v3.442h-.577v-3.472a1.427,1.427,0,0,0-.315-1,1.254,1.254,0,0,0-.955-.329,1.45,1.45,0,0,0-.933.31,1.818,1.818,0,0,0-.577.921v3.568h-.577v-5.2Z" transform="translate(-218.24 -174.678)" fill="#040506"/>
        <path id="Path_802" data-name="Path 802" d="M273.4,182.164a2.731,2.731,0,0,1-.111-.726,2.01,2.01,0,0,1-.771.608,2.362,2.362,0,0,1-.993.214,1.746,1.746,0,0,1-1.214-.418,1.363,1.363,0,0,1-.464-1.058,1.392,1.392,0,0,1,.632-1.2,3.038,3.038,0,0,1,1.762-.443h1.043v-.591a1.14,1.14,0,0,0-.344-.878,1.421,1.421,0,0,0-1-.319,1.566,1.566,0,0,0-1,.308.913.913,0,0,0-.395.74l-.577,0a1.338,1.338,0,0,1,.577-1.075,2.223,2.223,0,0,1,1.418-.454,2.024,2.024,0,0,1,1.373.436,1.561,1.561,0,0,1,.517,1.214v2.462a3.051,3.051,0,0,0,.159,1.13v.058Zm-1.808-.413a1.937,1.937,0,0,0,1.032-.279,1.642,1.642,0,0,0,.661-.745v-1.144h-1.029a2.573,2.573,0,0,0-1.346.315.945.945,0,0,0-.486.838.93.93,0,0,0,.325.726A1.221,1.221,0,0,0,271.594,181.75Z" transform="translate(-225.087 -174.678)" fill="#040506"/>
        <path id="Path_803" data-name="Path 803" d="M280.413,176.961l.019.889a2.064,2.064,0,0,1,.731-.733,1.894,1.894,0,0,1,.966-.253,1.559,1.559,0,0,1,1.245.472,2.126,2.126,0,0,1,.413,1.413v3.414h-.572v-3.419a1.587,1.587,0,0,0-.3-1.038,1.157,1.157,0,0,0-.93-.341,1.456,1.456,0,0,0-.945.334,1.964,1.964,0,0,0-.608.9v3.563h-.572v-5.2Z" transform="translate(-229.559 -174.678)" fill="#040506"/>
        <path id="Path_804" data-name="Path 804" d="M292.705,182.164a2.732,2.732,0,0,1-.111-.726,2.01,2.01,0,0,1-.771.608,2.362,2.362,0,0,1-.993.214,1.746,1.746,0,0,1-1.214-.418,1.363,1.363,0,0,1-.464-1.058,1.392,1.392,0,0,1,.632-1.2,3.038,3.038,0,0,1,1.762-.443h1.043v-.591a1.14,1.14,0,0,0-.344-.878,1.421,1.421,0,0,0-1-.319,1.567,1.567,0,0,0-1,.308.913.913,0,0,0-.395.74l-.577,0a1.338,1.338,0,0,1,.577-1.075,2.224,2.224,0,0,1,1.419-.454,2.024,2.024,0,0,1,1.373.436,1.561,1.561,0,0,1,.517,1.214v2.462a3.051,3.051,0,0,0,.159,1.13v.058Zm-1.808-.413a1.935,1.935,0,0,0,1.031-.279,1.642,1.642,0,0,0,.661-.745v-1.144h-1.029a2.574,2.574,0,0,0-1.346.315.944.944,0,0,0-.485.838.93.93,0,0,0,.324.726A1.222,1.222,0,0,0,290.9,181.75Z" transform="translate(-233.706 -174.678)" fill="#040506"/>
        <path id="Path_805" data-name="Path 805" d="M298.751,179.514a3.131,3.131,0,0,1,.541-1.935,1.745,1.745,0,0,1,1.469-.714,1.81,1.81,0,0,1,1.615.846l.029-.75h.539v5.1a2.2,2.2,0,0,1-.563,1.591,2.01,2.01,0,0,1-1.524.587,2.309,2.309,0,0,1-1.036-.243,2.014,2.014,0,0,1-.777-.646l.322-.346a1.823,1.823,0,0,0,1.452.75,1.476,1.476,0,0,0,1.125-.426,1.7,1.7,0,0,0,.418-1.18v-.654a1.86,1.86,0,0,1-1.611.769,1.733,1.733,0,0,1-1.452-.721,3.142,3.142,0,0,1-.548-1.947Zm.582.1a2.713,2.713,0,0,0,.4,1.57,1.291,1.291,0,0,0,1.125.574,1.537,1.537,0,0,0,1.5-.952v-2.419a1.644,1.644,0,0,0-.582-.762,1.569,1.569,0,0,0-.913-.262,1.307,1.307,0,0,0-1.13.57A2.9,2.9,0,0,0,299.333,179.615Z" transform="translate(-237.993 -174.678)" fill="#040506"/>
        <path id="Path_806" data-name="Path 806" d="M310.8,182.259a2.229,2.229,0,0,1-2.034-1.238,2.842,2.842,0,0,1-.3-1.311V179.5a3.058,3.058,0,0,1,.291-1.352,2.317,2.317,0,0,1,.81-.945,2,2,0,0,1,1.125-.344,1.879,1.879,0,0,1,1.5.647,2.622,2.622,0,0,1,.555,1.767v.322h-3.711v.111a2.179,2.179,0,0,0,.507,1.474,1.615,1.615,0,0,0,1.277.589,1.87,1.87,0,0,0,.815-.168,1.809,1.809,0,0,0,.642-.539l.36.274A2.1,2.1,0,0,1,310.8,182.259Zm-.106-4.9a1.438,1.438,0,0,0-1.094.476,2.2,2.2,0,0,0-.541,1.279h3.12v-.063a1.907,1.907,0,0,0-.428-1.221A1.325,1.325,0,0,0,310.69,177.355Z" transform="translate(-242.33 -174.678)" fill="#040506"/>
        <path id="Path_807" data-name="Path 807" d="M318.729,176.961l.019.846a1.928,1.928,0,0,1,.721-.707,1.976,1.976,0,0,1,.962-.236,1.459,1.459,0,0,1,1.562,1.01,1.949,1.949,0,0,1,.745-.748,2.064,2.064,0,0,1,1.029-.262q1.673,0,1.707,1.827v3.472H324.9v-3.428a1.552,1.552,0,0,0-.3-1.034,1.224,1.224,0,0,0-.964-.336,1.531,1.531,0,0,0-1.048.4,1.42,1.42,0,0,0-.476.955v3.442h-.577v-3.472a1.428,1.428,0,0,0-.315-1,1.252,1.252,0,0,0-.954-.329,1.45,1.45,0,0,0-.933.31,1.817,1.817,0,0,0-.577.921v3.568h-.577v-5.2Z" transform="translate(-246.667 -174.678)" fill="#040506"/>
        <path id="Path_808" data-name="Path 808" d="M335.754,182.259a2.259,2.259,0,0,1-1.2-.327,2.233,2.233,0,0,1-.834-.911,2.843,2.843,0,0,1-.3-1.311V179.5a3.065,3.065,0,0,1,.291-1.352,2.314,2.314,0,0,1,.81-.945,2,2,0,0,1,1.125-.344,1.877,1.877,0,0,1,1.5.647,2.62,2.62,0,0,1,.556,1.767v.322h-3.712v.111a2.179,2.179,0,0,0,.508,1.474,1.614,1.614,0,0,0,1.276.589,1.87,1.87,0,0,0,.815-.168,1.8,1.8,0,0,0,.642-.539l.361.274A2.1,2.1,0,0,1,335.754,182.259Zm-.106-4.9a1.44,1.44,0,0,0-1.094.476,2.2,2.2,0,0,0-.541,1.279h3.12v-.063a1.91,1.91,0,0,0-.428-1.221A1.326,1.326,0,0,0,335.648,177.355Z" transform="translate(-253.475 -174.678)" fill="#040506"/>
        <path id="Path_809" data-name="Path 809" d="M343.735,176.961l.019.889a2.063,2.063,0,0,1,.731-.733,1.9,1.9,0,0,1,.967-.253,1.561,1.561,0,0,1,1.245.472,2.126,2.126,0,0,1,.413,1.413v3.414h-.572v-3.419a1.587,1.587,0,0,0-.3-1.038,1.156,1.156,0,0,0-.93-.341,1.458,1.458,0,0,0-.945.334,1.963,1.963,0,0,0-.608.9v3.563h-.572v-5.2Z" transform="translate(-257.836 -174.678)" fill="#040506"/>
        <path id="Path_810" data-name="Path 810" d="M353.339,174.633v1.332h1.077v.471h-1.077v3.471a1.086,1.086,0,0,0,.156.645.606.606,0,0,0,.522.212,3.578,3.578,0,0,0,.467-.048l.024.467a1.875,1.875,0,0,1-.615.081,1.026,1.026,0,0,1-.861-.344,1.619,1.619,0,0,1-.27-1.012v-3.472H351.8v-.471h.956v-1.332Z" transform="translate(-261.684 -173.681)" fill="#040506"/>
        <path id="Path_811" data-name="Path 811" d="M365.9,180.842a.82.82,0,0,0-.344-.688,2.66,2.66,0,0,0-1.036-.406,4.659,4.659,0,0,1-1.075-.337,1.435,1.435,0,0,1-.567-.464,1.158,1.158,0,0,1-.185-.664,1.238,1.238,0,0,1,.514-1.017,2.08,2.08,0,0,1,1.317-.4,2.136,2.136,0,0,1,1.4.431,1.38,1.38,0,0,1,.526,1.122h-.577a.932.932,0,0,0-.382-.759,1.723,1.723,0,0,0-1.875-.05.778.778,0,0,0-.344.656.71.71,0,0,0,.286.6,3.044,3.044,0,0,0,1.043.392,4.9,4.9,0,0,1,1.135.38,1.465,1.465,0,0,1,.56.485,1.335,1.335,0,0,1-.349,1.741,2.268,2.268,0,0,1-1.387.394,2.332,2.332,0,0,1-1.473-.439,1.355,1.355,0,0,1-.565-1.114h.577a1,1,0,0,0,.426.786,1.742,1.742,0,0,0,1.036.281,1.633,1.633,0,0,0,.971-.265A.793.793,0,0,0,365.9,180.842Z" transform="translate(-266.471 -174.678)" fill="#040506"/>
        <path id="Path_812" data-name="Path 812" d="M373.179,181.414l1.519-4.375h.62l-2.222,6.087-.115.27a1.4,1.4,0,0,1-1.322.947,1.592,1.592,0,0,1-.442-.068l-.005-.476.3.029a1.069,1.069,0,0,0,.685-.209,1.593,1.593,0,0,0,.444-.719l.255-.7-1.962-5.159h.63Z" transform="translate(-270.226 -174.755)" fill="#040506"/>
        <path id="Path_813" data-name="Path 813" d="M383.366,180.842a.82.82,0,0,0-.344-.688,2.66,2.66,0,0,0-1.036-.406,4.657,4.657,0,0,1-1.075-.337,1.435,1.435,0,0,1-.567-.464,1.158,1.158,0,0,1-.185-.664,1.239,1.239,0,0,1,.515-1.017,2.079,2.079,0,0,1,1.317-.4,2.138,2.138,0,0,1,1.4.431,1.382,1.382,0,0,1,.526,1.122h-.577a.932.932,0,0,0-.382-.759,1.723,1.723,0,0,0-1.875-.05.777.777,0,0,0-.344.656.71.71,0,0,0,.287.6,3.041,3.041,0,0,0,1.043.392,4.9,4.9,0,0,1,1.135.38,1.469,1.469,0,0,1,.56.485,1.336,1.336,0,0,1-.349,1.741,2.27,2.27,0,0,1-1.387.394,2.333,2.333,0,0,1-1.474-.439,1.357,1.357,0,0,1-.565-1.114h.577a1,1,0,0,0,.425.786,1.743,1.743,0,0,0,1.037.281,1.632,1.632,0,0,0,.971-.265A.792.792,0,0,0,383.366,180.842Z" transform="translate(-274.268 -174.678)" fill="#040506"/>
        <path id="Path_814" data-name="Path 814" d="M389.851,174.633v1.332h1.077v.471h-1.077v3.471a1.086,1.086,0,0,0,.156.645.6.6,0,0,0,.521.212,3.577,3.577,0,0,0,.467-.048l.024.467a1.877,1.877,0,0,1-.615.081,1.025,1.025,0,0,1-.861-.344,1.616,1.616,0,0,1-.27-1.012v-3.472h-.957v-.471h.957v-1.332Z" transform="translate(-277.989 -173.681)" fill="#040506"/>
        <path id="Path_815" data-name="Path 815" d="M396.948,182.259a2.259,2.259,0,0,1-1.2-.327,2.233,2.233,0,0,1-.834-.911,2.843,2.843,0,0,1-.3-1.311V179.5a3.066,3.066,0,0,1,.291-1.352,2.322,2.322,0,0,1,.81-.945,2,2,0,0,1,1.125-.344,1.877,1.877,0,0,1,1.5.647,2.62,2.62,0,0,1,.556,1.767v.322h-3.712v.111a2.179,2.179,0,0,0,.508,1.474,1.614,1.614,0,0,0,1.276.589,1.874,1.874,0,0,0,.815-.168,1.81,1.81,0,0,0,.642-.539l.36.274A2.1,2.1,0,0,1,396.948,182.259Zm-.106-4.9a1.44,1.44,0,0,0-1.094.476,2.2,2.2,0,0,0-.541,1.279h3.12v-.063a1.907,1.907,0,0,0-.428-1.221A1.326,1.326,0,0,0,396.842,177.355Z" transform="translate(-280.801 -174.678)" fill="#040506"/>
        <path id="Path_816" data-name="Path 816" d="M404.881,176.961l.019.846a1.924,1.924,0,0,1,.721-.707,1.976,1.976,0,0,1,.961-.236,1.459,1.459,0,0,1,1.563,1.01,1.945,1.945,0,0,1,.745-.748,2.063,2.063,0,0,1,1.029-.262q1.674,0,1.707,1.827v3.472h-.577v-3.428a1.552,1.552,0,0,0-.3-1.034,1.224,1.224,0,0,0-.964-.336,1.532,1.532,0,0,0-1.048.4,1.42,1.42,0,0,0-.476.955v3.442h-.577v-3.472a1.428,1.428,0,0,0-.315-1,1.254,1.254,0,0,0-.955-.329,1.45,1.45,0,0,0-.933.31,1.819,1.819,0,0,0-.577.921v3.568h-.577v-5.2Z" transform="translate(-285.138 -174.678)" fill="#040506"/>
        <path id="Path_817" data-name="Path 817" d="M424.527,180.4v-4.731h-.861V175.2h.861v-.63a1.713,1.713,0,0,1,.406-1.226,1.485,1.485,0,0,1,1.132-.428,2.206,2.206,0,0,1,.61.081l-.043.477a2.26,2.26,0,0,0-.524-.058.942.942,0,0,0-.741.3,1.224,1.224,0,0,0-.265.841v.646h1.241v.471H425.1V180.4Z" transform="translate(-293.774 -172.913)" fill="#040506"/>
        <path id="Path_818" data-name="Path 818" d="M429.79,179.486a3.063,3.063,0,0,1,.291-1.351,2.184,2.184,0,0,1,2.027-1.27,2.14,2.14,0,0,1,1.682.728,2.808,2.808,0,0,1,.644,1.93v.12a3.093,3.093,0,0,1-.291,1.359,2.174,2.174,0,0,1-.82.93,2.248,2.248,0,0,1-1.207.327,2.142,2.142,0,0,1-1.68-.728,2.8,2.8,0,0,1-.647-1.93Zm.577.158a2.363,2.363,0,0,0,.483,1.532,1.636,1.636,0,0,0,2.529,0,2.443,2.443,0,0,0,.483-1.58v-.111a2.648,2.648,0,0,0-.221-1.091,1.773,1.773,0,0,0-.62-.767,1.585,1.585,0,0,0-.913-.272,1.539,1.539,0,0,0-1.255.6,2.443,2.443,0,0,0-.485,1.58Z" transform="translate(-296.508 -174.678)" fill="#040506"/>
        <path id="Path_819" data-name="Path 819" d="M442.732,177.452a2.178,2.178,0,0,0-.39-.034,1.405,1.405,0,0,0-.911.3,1.646,1.646,0,0,0-.531.873v3.573h-.572v-5.2h.563l.009.827a1.529,1.529,0,0,1,1.466-.923.95.95,0,0,1,.38.063Z" transform="translate(-301.214 -174.678)" fill="#040506"/>
        <path id="Path_820" data-name="Path 820" d="M451.212,176.158a2.034,2.034,0,0,1,.726-.721,1.9,1.9,0,0,1,.967-.255,1.561,1.561,0,0,1,1.245.472,2.126,2.126,0,0,1,.413,1.413v3.414h-.572v-3.419a1.587,1.587,0,0,0-.3-1.038,1.156,1.156,0,0,0-.93-.341,1.459,1.459,0,0,0-.945.334,1.963,1.963,0,0,0-.608.9v3.563h-.572V173.1h.572Z" transform="translate(-305.819 -172.994)" fill="#040506"/>
        <path id="Path_821" data-name="Path 821" d="M459.831,179.486a3.055,3.055,0,0,1,.291-1.351,2.185,2.185,0,0,1,2.026-1.27,2.141,2.141,0,0,1,1.683.728,2.809,2.809,0,0,1,.644,1.93v.12a3.084,3.084,0,0,1-.291,1.359,2.171,2.171,0,0,1-.82.93,2.246,2.246,0,0,1-1.206.327,2.141,2.141,0,0,1-1.68-.728,2.8,2.8,0,0,1-.647-1.93Zm.577.158a2.36,2.36,0,0,0,.483,1.532,1.635,1.635,0,0,0,2.529,0,2.44,2.44,0,0,0,.483-1.58v-.111a2.649,2.649,0,0,0-.221-1.091,1.776,1.776,0,0,0-.62-.767,1.586,1.586,0,0,0-.914-.272,1.539,1.539,0,0,0-1.255.6,2.443,2.443,0,0,0-.485,1.58Z" transform="translate(-309.923 -174.678)" fill="#040506"/>
        <path id="Path_822" data-name="Path 822" d="M470.747,174.633v1.332h1.076v.471h-1.076v3.471a1.086,1.086,0,0,0,.156.645.6.6,0,0,0,.521.212,3.578,3.578,0,0,0,.467-.048l.024.467a1.877,1.877,0,0,1-.615.081,1.026,1.026,0,0,1-.861-.344,1.616,1.616,0,0,1-.27-1.012v-3.472h-.957v-.471h.957v-1.332Z" transform="translate(-314.113 -173.681)" fill="#040506"/>
        <path id="Path_823" data-name="Path 823" d="M477.844,182.259a2.259,2.259,0,0,1-1.2-.327,2.233,2.233,0,0,1-.834-.911,2.843,2.843,0,0,1-.3-1.311V179.5a3.066,3.066,0,0,1,.291-1.352,2.314,2.314,0,0,1,.81-.945,2,2,0,0,1,1.125-.344,1.877,1.877,0,0,1,1.5.647,2.619,2.619,0,0,1,.556,1.767v.322h-3.712v.111a2.179,2.179,0,0,0,.508,1.474,1.614,1.614,0,0,0,1.276.589,1.874,1.874,0,0,0,.815-.168,1.809,1.809,0,0,0,.642-.539l.36.274A2.1,2.1,0,0,1,477.844,182.259Zm-.106-4.9a1.44,1.44,0,0,0-1.094.476,2.2,2.2,0,0,0-.541,1.279h3.12v-.063a1.91,1.91,0,0,0-.428-1.221A1.326,1.326,0,0,0,477.738,177.355Z" transform="translate(-316.926 -174.678)" fill="#040506"/>
        <path id="Path_824" data-name="Path 824" d="M485.975,180.48H485.4V173.1h.577Z" transform="translate(-321.34 -172.994)" fill="#040506"/>
        <path id="Path_825" data-name="Path 825" d="M492.166,180.842a.82.82,0,0,0-.344-.688,2.66,2.66,0,0,0-1.036-.406,4.658,4.658,0,0,1-1.075-.337,1.435,1.435,0,0,1-.567-.464,1.158,1.158,0,0,1-.185-.664,1.239,1.239,0,0,1,.515-1.017,2.08,2.08,0,0,1,1.317-.4,2.137,2.137,0,0,1,1.4.431,1.38,1.38,0,0,1,.526,1.122h-.577a.932.932,0,0,0-.382-.759,1.723,1.723,0,0,0-1.875-.05.778.778,0,0,0-.344.656.71.71,0,0,0,.286.6,3.045,3.045,0,0,0,1.043.392,4.9,4.9,0,0,1,1.135.38,1.464,1.464,0,0,1,.56.485,1.336,1.336,0,0,1-.349,1.741,2.269,2.269,0,0,1-1.387.394,2.332,2.332,0,0,1-1.473-.439,1.355,1.355,0,0,1-.565-1.114h.577a1,1,0,0,0,.426.786,1.742,1.742,0,0,0,1.036.281,1.633,1.633,0,0,0,.971-.265A.793.793,0,0,0,492.166,180.842Z" transform="translate(-322.853 -174.678)" fill="#040506"/>
      </g>
    </g>
    <g id="Group_156" data-name="Group 156" transform="translate(93.464 111.575)">
      <g id="Group_155" data-name="Group 155">
        <path id="Path_443" data-name="Path 443" d="M117.433,127.894a32.619,32.619,0,0,0-8.415-4.813A32.161,32.161,0,0,0,101.9,121.2c-.31-.044-.621-.089-.93-.124h-.056c-.049,0-.1,0-.15,0a5.126,5.126,0,0,0-4.6,2.848l-.006.016c0,.007,0,.017-.012.023l-.01.009c-.089.222-.178.439-.255.66a.073.073,0,0,0-.018.044,32.327,32.327,0,0,0-1.824,7.063,19.659,19.659,0,0,1,4.527-.521c.469,0,.94.017,1.405.05h.007c.111.016.221.028.339.04a2.888,2.888,0,0,0,.293.015.136.136,0,0,0,.049.006,19.046,19.046,0,0,1,3.679.749,19.7,19.7,0,0,1,7.5,4.247A19.844,19.844,0,0,0,117.433,127.894Z" transform="translate(-93.723 -121.074)" fill="#f07314"/>
        <path id="Path_444" data-name="Path 444" d="M131.476,144.577a4.884,4.884,0,0,1-.777.949,32.654,32.654,0,0,1-4.977,4.779,33.867,33.867,0,0,1-3.118,2.116,19.7,19.7,0,0,1-9.89-6.411A19.844,19.844,0,0,0,125.773,133.4a33.4,33.4,0,0,1,4.708,4.55,5.127,5.127,0,0,1,1,6.63Z" transform="translate(-102.061 -126.576)" fill="#fb9b08"/>
        <path id="Path_445" data-name="Path 445" d="M104.011,148.569c.01.049.017.1.027.148a19.722,19.722,0,0,0,4.562,9.036,32.509,32.509,0,0,1-7.051,1.78,4.41,4.41,0,0,1-.728.089c-.076.006-.147.027-.226.028a1.478,1.478,0,0,1-.148,0,5.145,5.145,0,0,1-4.619-2.887c-.006-.006-.006-.013-.012-.025a4.79,4.79,0,0,1-.271-.7.024.024,0,0,1-.006-.016,33.2,33.2,0,0,1-1.015-3.227c-.2-.781-.374-1.57-.52-2.374-.088-.478-.173-.96-.237-1.446a32.285,32.285,0,0,1-.3-4.446,33.317,33.317,0,0,1,.319-4.613,19.6,19.6,0,0,1,4.527-.521c.469,0,.94.017,1.405.05h.007c.111.016.221.028.339.039a2.884,2.884,0,0,0,.293.016.146.146,0,0,0,.049.006,19.045,19.045,0,0,1,3.679.749,19.645,19.645,0,0,0-.076,8.307Z" transform="translate(-93.465 -129.258)" fill="#e64e18"/>
        <path id="Path_447" data-name="Path 447" d="M103.552,140.2c.13,0,.255.016.382.022a19.032,19.032,0,0,0-3.529-.706.133.133,0,0,1-.049-.006,2.884,2.884,0,0,1-.293-.016c-.118-.012-.228-.023-.339-.04h-.007c-.465-.034-.936-.05-1.406-.05a19.7,19.7,0,0,0-4.527.521,33.486,33.486,0,0,0-.319,4.612c0,.219.017.434.022.651A12.651,12.651,0,0,1,103.552,140.2Z" transform="translate(-93.464 -129.259)" fill="url(#linear-gradient)"/>
      </g>
    </g>
    <g id="Group_157" data-name="Group 157" transform="translate(135.534 99.801)">
      <path id="Path_449" data-name="Path 449" d="M254.995,130.943a16.313,16.313,0,0,1,1.575-7.293,11.57,11.57,0,0,1,4.537-4.957,13.186,13.186,0,0,1,6.875-1.752,12.535,12.535,0,0,1,9.086,3.4,13.658,13.658,0,0,1,3.924,9.25l.053,1.881q0,6.327-3.532,10.152a13.691,13.691,0,0,1-18.972.012Q255,137.831,255,131.275v-.332Zm7.343.522a10.269,10.269,0,0,0,1.475,5.995,5.3,5.3,0,0,0,8.386.028q1.5-2.055,1.5-6.554a10.176,10.176,0,0,0-1.5-5.957,4.873,4.873,0,0,0-4.217-2.114,4.793,4.793,0,0,0-4.17,2.1q-1.474,2.1-1.477,6.5Z" transform="translate(-207.666 -107.455)" fill="#1a1818"/>
      <path id="Path_450" data-name="Path 450" d="M237.709,116.946a6.807,6.807,0,0,0-6.126,3.782l-.2-3.279h-5.823a1.112,1.112,0,0,0-1.112,1.111h0v26.384h7.341V126.953q1.3-2.822,5.463-2.82a20.212,20.212,0,0,1,2.643.205l.1-7.066A7.694,7.694,0,0,0,237.709,116.946Z" transform="translate(-194.024 -107.457)" fill="#1a1818"/>
      <path id="Path_451" data-name="Path 451" d="M331.873,122.238a11.166,11.166,0,0,0,4.966-4.024,11.425,11.425,0,0,0,1.638-6.317,10.077,10.077,0,0,0-3.56-8.258q-3.558-2.924-10.111-2.921H313.283a2.222,2.222,0,0,0-2.223,2.222h0v34.774h7.623V124.17h6.074l6.931,13.544h8.185v-.354Zm-2.592-5.7A6.3,6.3,0,0,1,324.833,118h-6.147V106.889h6.124a6.182,6.182,0,0,1,4.562,1.5,5.6,5.6,0,0,1,1.486,4.117,5.232,5.232,0,0,1-1.577,4.028Z" transform="translate(-232.702 -100.211)" fill="#1a1818"/>
      <path id="Path_452" data-name="Path 452" d="M466.46,115.477a20.6,20.6,0,0,1-5.352-2.286,3.575,3.575,0,0,1-1.815-3.025,3.725,3.725,0,0,1,1.549-3.111,7.03,7.03,0,0,1,4.347-1.18,6.585,6.585,0,0,1,4.5,1.41,4.651,4.651,0,0,1,1.5,2.8.085.085,0,0,1-.01.025,1.009,1.009,0,0,0,.018.116,1.1,1.1,0,0,0,1.079,1.008l.015,0,.016,0h6.6a10.658,10.658,0,0,0-1.712-5.949,11.3,11.3,0,0,0-4.817-4.053,16.618,16.618,0,0,0-7.064-1.433,18.29,18.29,0,0,0-7.1,1.319,11,11,0,0,0-4.855,3.673,8.937,8.937,0,0,0-1.691,5.349q0,5.772,6.3,9.175a38.434,38.434,0,0,0,6.276,2.529,20.013,20.013,0,0,1,5.489,2.44,3.911,3.911,0,0,1,1.524,3.314,3.593,3.593,0,0,1-1.524,3.088,7.075,7.075,0,0,1-4.243,1.107c-4.4,0-6.8-1.676-7.233-4.995l0-.018a.261.261,0,0,1-.005-.041,1.107,1.107,0,0,0-1.106-1.07h-6.626a10.97,10.97,0,0,0,1.841,6.3,12.287,12.287,0,0,0,5.351,4.281,18.919,18.919,0,0,0,7.777,1.562q6.147,0,9.782-2.731a8.9,8.9,0,0,0,3.633-7.535,9.669,9.669,0,0,0-2.975-7.218Q472.969,117.429,466.46,115.477Z" transform="translate(-294.978 -99.801)" fill="#1a1818"/>
      <path id="Path_453" data-name="Path 453" d="M407.719,100.716h-7.006a1.114,1.114,0,0,0-1.023.676l0,.013-9.213,26.146-9.233-26.064-.048-.132a1.1,1.1,0,0,0-.992-.638h-6.972a2.222,2.222,0,0,0-2.223,2.222h0v34.774h7.623V127.6l-.762-17.435,9.663,26.716.083.227a1.1,1.1,0,0,0,.972.6h3.725a1.107,1.107,0,0,0,.977-.608l.074-.21,9.694-26.752-.763,17.458v10.111h7.648v-34.77A2.224,2.224,0,0,0,407.719,100.716Z" transform="translate(-259.471 -100.21)" fill="#1a1818"/>
      <path id="Path_454" data-name="Path 454" d="M191.52,120.64a9.377,9.377,0,0,0-7.941-3.78,8.68,8.68,0,0,0-7,3.216l-.258-2.7h-5.734a1.109,1.109,0,0,0-1.109,1.109v37.15h7.379V142.609a8.621,8.621,0,0,0,6.77,2.909,9.309,9.309,0,0,0,7.833-3.843q2.893-3.847,2.9-10.23v-.382Q194.354,124.421,191.52,120.64Zm-9.833,18.926a4.921,4.921,0,0,1-4.83-2.731V125.521q1.306-2.662,4.777-2.658a4.45,4.45,0,0,1,3.972,2.1,10.915,10.915,0,0,1,1.367,5.951q0,8.651-5.286,8.657Z" transform="translate(-169.478 -107.419)" fill="#1a1818"/>
    </g>
  </g>
</svg>
